Coordinates
nRows=6
nColumns=38

# SIMM Motion File Header:
name Coordinates
datacolumns 38
datarows 6
otherdata 1
range 2.28799999999999980000 2.29300000000000010000

Units are S.I. units (second, meters, Newtons, ...)
Angles are in degrees.

endheader
time	pelvis_tilt	pelvis_list	pelvis_rotation	pelvis_tx	pelvis_ty	pelvis_tz	hip_flexion_r	hip_adduction_r	hip_rotation_r	knee_angle_r	ankle_angle_r	subtalar_angle_r	mtp_angle_r	hip_flexion_l	hip_adduction_l	hip_rotation_l	knee_angle_l	ankle_angle_l	subtalar_angle_l	mtp_angle_l	lumbar_extension	lumbar_bending	lumbar_rotation	arm_flex_r	arm_add_r	arm_rot_r	elbow_flex_r	pro_sup_r	wrist_flex_r	wrist_dev_r	arm_flex_l	arm_add_l	arm_rot_l	elbow_flex_l	pro_sup_l	wrist_flex_l	wrist_dev_l
      2.28799999999999980000	     -0.69797803959269955000	      5.72832905646760530000	     -0.51932427404649284000	      0.79231797539715743000	      0.99853515053199715000	     -0.30722376665246121000	     29.59037350058126100000	     -4.50320045894290290000	      1.42270468456499350000	    -82.47214932416507300000	      1.13654427374021630000	      0.00000000000006554972	      0.00000000000019330262	     -0.36563169955390928000	     13.15612372592728900000	      9.53285259522358610000	    -28.87066028213160600000	     19.94935861784576800000	     -0.00000000000003202709	      0.00000000000002828038	    -14.25394835745178000000	    -11.65644171088224800000	     -7.77116269296929560000	    -24.05785216122676900000	    -17.62627953326121900000	     -7.74659982783390880000	     86.37131015894173900000	     71.17221850311061400000	      0.00000000000000385710	      0.00000000000002379834	     -3.64629271609448180000	    -21.56630622577705800000	     -2.97058591854181130000	     90.79985172869187700000	    100.56608643041396000000	      0.00000000000007780312	      0.00000000000000592681
      2.28900000000000010000	     -0.69736058229031717000	      5.64292996332674690000	     -0.52510337736688051000	      0.79245023041534446000	      0.99918549095465725000	     -0.30712695423121650000	     29.69640765402794400000	     -4.41101448733251190000	      1.36823723069948590000	    -82.11553897100526500000	      1.13789660535861530000	      0.00000000000006572478	      0.00000000000019379326	     -0.72890419176759846000	     13.03910963507555100000	      9.61319969555522210000	    -28.54211803741306100000	     19.70410167647482800000	     -0.00000000000003223079	      0.00000000000002854669	    -14.22938842639976500000	    -11.54943925276072600000	     -7.82610203035892480000	    -24.20145561644114500000	    -17.60457962369817200000	     -7.75867177483220960000	     86.41745789574210300000	     71.21118749329964700000	      0.00000000000000386761	      0.00000000000002385436	     -3.58286829350799870000	    -21.51546175801854600000	     -2.98898967828633390000	     90.97578251008818000000	    100.45255335870726000000	      0.00000000000007801872	      0.00000000000000604782
      2.29000000000000000000	     -0.69656306937233825000	      5.55645130645095620000	     -0.53179546690076063000	      0.79258764989995611000	      0.99984076548547896000	     -0.30702719839366693000	     29.79851673375286600000	     -4.31735288399558750000	      1.31402807906105030000	    -81.75239017780454300000	      1.13806516465617460000	      0.00000000000006589575	      0.00000000000019428322	     -1.09180957392138090000	     12.91966311402098600000	      9.68980260969871670000	    -28.21271951726623000000	     19.45168717418377800000	     -0.00000000000003242506	      0.00000000000002879299	    -14.20419351213777000000	    -11.44147137350320000000	     -7.87972612192679820000	    -24.34500509550363000000	    -17.58327490634025000000	     -7.77107786347843100000	     86.46403742773583200000	     71.25189277012012200000	      0.00000000000000387785	      0.00000000000002390915	     -3.52170548823555670000	    -21.46532481761869300000	     -3.00650562146862120000	     91.15259277819468800000	    100.33795349440634000000	      0.00000000000007823357	      0.00000000000000616960
      2.29099999999999990000	     -0.69561857470411748000	      5.46892303573356300000	     -0.53940473254027543000	      0.79273007510753268000	      1.00050072462566870000	     -0.30692448272265144000	     29.89675873737283900000	     -4.22222900351395230000	      1.26014752159427170000	    -81.38276859782577300000	      1.13703638757340220000	      0.00000000000006606882	      0.00000000000019477421	     -1.45419076616036970000	     12.79783293803679100000	      9.76250912293903990000	    -27.88264581968906700000	     19.19212333525905100000	     -0.00000000000003263089	      0.00000000000002905165	    -14.17835889916931400000	    -11.33257648960193200000	     -7.93206799221745660000	    -24.48844546373241500000	    -17.56237444788752500000	     -7.78376188089905430000	     86.51099513465700900000	     71.29420278415433600000	      0.00000000000000388794	      0.00000000000002396515	     -3.46279577914054970000	    -21.41593662408266900000	     -3.02314224453632500000	     91.33025324952663500000	    100.22254127917019000000	      0.00000000000007844973	      0.00000000000000629681
      2.29199999999999980000	     -0.69456152440615238000	      5.38037545274071150000	     -0.54793159792810819000	      0.79287734333810078000	      1.00116511694456340000	     -0.30681879646102866000	     29.99119494522452500000	     -4.12565611701936690000	      1.20666120062472640000	    -81.00674179762489800000	      1.13479407038208690000	      0.00000000000006624460	      0.00000000000019526748	     -1.81589308481978070000	     12.67367152165471600000	      9.83117484499912920000	    -27.55207341618888600000	     18.92541702885984700000	     -0.00000000000003282577	      0.00000000000002927577	    -14.15188019829564100000	    -11.22279229924651700000	     -7.98316461015226240000	    -24.63172288530402900000	    -17.54188747209935100000	     -7.79666787919616410000	     86.55828086787519700000	     71.33798262149545600000	      0.00000000000000389817	      0.00000000000002402115	     -3.40613052473318540000	    -21.36733770894738500000	     -3.03890943387174460000	     91.50873792089183200000	    100.10656452708476000000	      0.00000000000007866656	      0.00000000000000642372
      2.29300000000000010000	     -0.69342751753383181000	      5.29083919594335850000	     -0.55737293304631386000	      0.79302928861002597000	      1.00183368932374410000	     -0.30671013398249908000	     30.08188962529794000000	     -4.02764737851628050000	      1.15363004807285070000	    -80.62437909892517500000	      1.13132025008275460000	      0.00000000000006641471	      0.00000000000019576115	     -2.17676464582800970000	     12.54723478469499500000	      9.89566351237141180000	    -27.22117391317382100000	     18.65157429591437600000	     -0.00000000000003305861	      0.00000000000002946578	    -14.12475334240171400000	    -11.11215586505667500000	     -8.03305655242050780000	    -24.77478496185958100000	    -17.52182322691225700000	     -7.80974036337282400000	     86.60584783358319800000	     71.38309454941224900000	      0.00000000000000390804	      0.00000000000002407591	     -3.35170088274293490000	    -21.31956787855147400000	     -3.05381823230016370000	     91.68802375199507500000	     99.99026404645728400000	      0.00000000000007888296	      0.00000000000000654943
